<svg width="64" height="66" viewBox="0 0 64 66" fill="none" xmlns="http://www.w3.org/2000/svg">
<rect x="1" y="1" width="61.6774" height="64" rx="16" fill="#583FBC" fill-opacity="0.2" stroke="url(#paint0_linear_401_1540)"/>
<rect x="8.70996" y="9" width="46.2581" height="48" rx="16" fill="#583FBC"/>
<path fill-rule="evenodd" clip-rule="evenodd" d="M34.1096 23.0079C33.8946 22.976 33.6787 23.0419 33.5069 23.1838C33.3303 23.3277 33.2199 23.5356 33.1959 23.7684C33.145 24.2391 33.4723 24.6648 33.9253 24.7178C37.0493 25.0795 39.4775 27.6048 39.8288 30.8565C39.8758 31.2922 40.2281 31.621 40.6484 31.621C40.6801 31.621 40.7108 31.619 40.7425 31.615C40.9623 31.59 41.1581 31.4771 41.2963 31.2972C41.4335 31.1174 41.4959 30.8935 41.471 30.6647C41.0333 26.6075 38.0072 23.4586 34.1096 23.0079ZM34.1696 26.4899C33.7108 26.402 33.2895 26.7058 33.2021 27.1705C33.1148 27.6352 33.4085 28.0888 33.8548 28.1798C35.1984 28.4516 36.2359 29.5308 36.4989 30.9299V30.9309C36.5738 31.3336 36.9155 31.6264 37.309 31.6264C37.3617 31.6264 37.4145 31.6214 37.4683 31.6114C37.9146 31.5185 38.2083 31.0658 38.1209 30.6001C37.7284 28.5106 36.1784 26.8967 34.1696 26.4899ZM35.6941 36.0905C36.1292 35.8302 36.6206 35.5362 37.2405 35.673C37.802 35.7959 39.7157 37.4078 40.2398 37.9665C40.5834 38.3322 40.7744 38.7099 40.8041 39.0877C40.8559 40.5697 38.9153 42.2615 38.5621 42.4724C38.0928 42.8231 37.5467 43 36.9334 43C36.3067 43 35.608 42.8151 34.8459 42.4464C30.7113 40.6556 24.3951 34.231 22.7251 29.9739C22.0322 28.389 22.0274 27.0819 22.7136 26.0996C22.9871 25.6389 24.5467 23.7132 25.9432 23.7742C26.3146 23.8072 26.6755 24.005 27.0296 24.3648C27.5652 24.9094 29.0797 26.9011 29.1968 27.4857C29.3263 28.1352 29.0423 28.6519 28.7898 29.1055C28.736 29.2031 28.6635 29.3188 28.584 29.4456C28.2824 29.9268 27.8809 30.5674 28.023 30.9763C29.0413 33.5705 31.3937 35.8339 33.8948 36.8972C34.2816 37.0431 34.8985 36.6235 35.3608 36.3092C35.4812 36.2273 35.5912 36.1525 35.6838 36.0967L35.6941 36.0905Z" fill="white"/>
<defs>
<linearGradient id="paint0_linear_401_1540" x1="1" y1="1" x2="64.9563" y2="62.6353" gradientUnits="userSpaceOnUse">
<stop stop-color="#583FBC"/>
<stop offset="1" stop-color="#583FBC" stop-opacity="0"/>
</linearGradient>
</defs>
</svg>
